# xmcd CD database file
# Generated: vie abr 23 21:06:44 2004 by KSCD
# 
# Track frame offsets:
#       150
#       3005
#       33655
#       61108
#       88682
#       118699
#       143912
#       163855
#       210194
#       246189
#       266690
#       291172
#       320159
#
# Disc length: 4727 seconds
#
# Revision: 1
# Processed by: cddbd v1.5PL3 Copyright (c) Steve Scherf et al.
# Submitted via: Kscd 1.3.3
#
DISCID=b712750d
DTITLE=Mojave 3 - At Lee's Palace
DYEAR=1900
DGENRE=
TTITLE0=Intro
TTITLE1=Starlite # 1
TTITLE2=Bill Oddity
TTITLE3=Give What You Take
TTITLE4=This Road I'm Travelling
TTITLE5=Yer Feet
TTITLE6=Some Kinda Angel
TTITLE7=Bluebird of Happiness
TTITLE8=Battle of The Broken Hearts
TTITLE9=She's All Up Above
TTITLE10=Tinkers Blues
TTITLE11=Baby's Coming Home
TTITLE12=In Love With A View
EXTD=
EXTT0=
EXTT1=
EXTT2=
EXTT3=
EXTT4=
EXTT5=
EXTT6=
EXTT7=
EXTT8=
EXTT9=
EXTT10=
EXTT11=
EXTT12=
PLAYORDER=
